<mxfile host="Electron" modified="2024-04-15T04:26:31.738Z" agent="Mozilla/5.0 (Windows NT 10.0; Win64; x64) AppleWebKit/537.36 (KHTML, like Gecko) draw.io/21.7.5 Chrome/114.0.5735.289 Electron/25.8.1 Safari/537.36" etag="_yPWq14qpLGnlgF4H6nX" version="21.7.5" type="device">
  <diagram name="第 1 页" id="akJ0fcTaUh_Lfy5anjCc">
    <mxGraphModel dx="3756" dy="3937" grid="1" gridSize="10" guides="1" tooltips="1" connect="1" arrows="1" fold="1" page="1" pageScale="1" pageWidth="827" pageHeight="1169" math="0" shadow="0">
      <root>
        <mxCell id="0" />
        <mxCell id="1" parent="0" />
        <mxCell id="ygbAmATQAXXGK-9TUX-k-4" value="" style="rounded=1;whiteSpace=wrap;html=1;fillColor=#fff2cc;strokeColor=#d6b656;arcSize=2;" parent="1" vertex="1">
          <mxGeometry x="90" y="-10" width="980" height="310" as="geometry" />
        </mxCell>
        <mxCell id="pnQwtb9DpmezKh93gruR-9" value="" style="rounded=1;whiteSpace=wrap;html=1;arcSize=4;" parent="1" vertex="1">
          <mxGeometry x="300" width="416" height="260" as="geometry" />
        </mxCell>
        <mxCell id="pnQwtb9DpmezKh93gruR-4" value="Agent 1" style="rounded=1;whiteSpace=wrap;html=1;fillColor=#e1d5e7;strokeColor=#9673a6;" parent="1" vertex="1">
          <mxGeometry x="608" y="105" width="90" height="30" as="geometry" />
        </mxCell>
        <mxCell id="pnQwtb9DpmezKh93gruR-5" value="Agent 2" style="rounded=1;whiteSpace=wrap;html=1;fillColor=#e1d5e7;strokeColor=#9673a6;" parent="1" vertex="1">
          <mxGeometry x="608" y="145" width="90" height="30" as="geometry" />
        </mxCell>
        <mxCell id="pnQwtb9DpmezKh93gruR-6" value="Agent 3" style="rounded=1;whiteSpace=wrap;html=1;fillColor=#e1d5e7;strokeColor=#9673a6;" parent="1" vertex="1">
          <mxGeometry x="608" y="185" width="90" height="30" as="geometry" />
        </mxCell>
        <mxCell id="pnQwtb9DpmezKh93gruR-10" value="&lt;span style=&quot;color: rgb(0, 0, 0); font-family: Helvetica; font-size: 12px; font-style: normal; font-variant-ligatures: normal; font-variant-caps: normal; font-weight: 400; letter-spacing: normal; orphans: 2; text-indent: 0px; text-transform: none; widows: 2; word-spacing: 0px; -webkit-text-stroke-width: 0px; text-decoration-thickness: initial; text-decoration-style: initial; text-decoration-color: initial; float: none; display: inline !important;&quot;&gt;Local&lt;/span&gt;" style="text;whiteSpace=wrap;html=1;align=center;labelBackgroundColor=none;verticalAlign=middle;" parent="1" vertex="1">
          <mxGeometry x="470" y="241" width="110" height="20" as="geometry" />
        </mxCell>
        <mxCell id="pnQwtb9DpmezKh93gruR-11" value="Master&lt;br&gt;Matrix" style="rounded=1;whiteSpace=wrap;html=1;arcSize=0;" parent="1" vertex="1">
          <mxGeometry x="347" y="90" width="172" height="140" as="geometry" />
        </mxCell>
        <mxCell id="pnQwtb9DpmezKh93gruR-16" value="AgentCraft (Unreal Engine 5)" style="rounded=1;whiteSpace=wrap;html=1;" parent="1" vertex="1">
          <mxGeometry x="343" y="10" width="180" height="50" as="geometry" />
        </mxCell>
        <mxCell id="pnQwtb9DpmezKh93gruR-18" value="&lt;span style=&quot;color: rgba(0, 0, 0, 0.87); font-family: Roboto, -apple-system, BlinkMacSystemFont, Helvetica, Arial, sans-serif; font-size: 16px; font-style: normal; font-variant-ligatures: normal; font-variant-caps: normal; font-weight: 400; letter-spacing: normal; orphans: 2; text-indent: 0px; text-transform: none; widows: 2; word-spacing: 0px; -webkit-text-stroke-width: 0px; text-decoration-thickness: initial; text-decoration-style: initial; text-decoration-color: initial; float: none; display: inline !important;&quot;&gt;ASGI&lt;span&gt;&amp;nbsp;&lt;/span&gt;&lt;/span&gt;" style="text;whiteSpace=wrap;html=1;align=center;fillColor=#dae8fc;strokeColor=#6c8ebf;rotation=90;verticalAlign=middle;labelBackgroundColor=none;" parent="1" vertex="1">
          <mxGeometry x="444" y="150.32" width="130" height="19.37" as="geometry" />
        </mxCell>
        <mxCell id="pnQwtb9DpmezKh93gruR-12" value="" style="endArrow=classic;startArrow=classic;html=1;rounded=0;" parent="1" edge="1">
          <mxGeometry width="50" height="50" relative="1" as="geometry">
            <mxPoint x="608" y="120" as="sourcePoint" />
            <mxPoint x="518" y="120" as="targetPoint" />
          </mxGeometry>
        </mxCell>
        <mxCell id="pnQwtb9DpmezKh93gruR-13" value="" style="endArrow=classic;startArrow=classic;html=1;rounded=0;" parent="1" edge="1">
          <mxGeometry width="50" height="50" relative="1" as="geometry">
            <mxPoint x="608" y="159.71" as="sourcePoint" />
            <mxPoint x="518" y="159.71" as="targetPoint" />
          </mxGeometry>
        </mxCell>
        <mxCell id="pnQwtb9DpmezKh93gruR-14" value="" style="endArrow=classic;startArrow=classic;html=1;rounded=0;" parent="1" edge="1">
          <mxGeometry width="50" height="50" relative="1" as="geometry">
            <mxPoint x="608" y="199.71" as="sourcePoint" />
            <mxPoint x="518" y="199.71" as="targetPoint" />
          </mxGeometry>
        </mxCell>
        <mxCell id="pnQwtb9DpmezKh93gruR-46" value="1. Matrix establish FastAPI websocket&lt;br&gt;2. Begin new process `subprocess.Popen` with port of ASGI&lt;br&gt;3. Agent connect&lt;br&gt;4. Agent Read/Write/Wait" style="rounded=1;whiteSpace=wrap;html=1;labelBorderColor=none;strokeColor=#0e8088;fillColor=#b0e3e6;arcSize=0;align=left;" parent="1" vertex="1">
          <mxGeometry x="726" width="330" height="120" as="geometry" />
        </mxCell>
        <mxCell id="0hxbyFXT4rtWx_21wY-C-1" value="A1" style="rounded=1;whiteSpace=wrap;html=1;fillColor=#d0cee2;strokeColor=#56517e;" parent="1" vertex="1">
          <mxGeometry x="460" y="110" width="36" height="20" as="geometry" />
        </mxCell>
        <mxCell id="0hxbyFXT4rtWx_21wY-C-2" value="A2" style="rounded=1;whiteSpace=wrap;html=1;fillColor=#d0cee2;strokeColor=#56517e;" parent="1" vertex="1">
          <mxGeometry x="460" y="150" width="36" height="20" as="geometry" />
        </mxCell>
        <mxCell id="0hxbyFXT4rtWx_21wY-C-3" value="A3" style="rounded=1;whiteSpace=wrap;html=1;fillColor=#d0cee2;strokeColor=#56517e;" parent="1" vertex="1">
          <mxGeometry x="460" y="190" width="36" height="20" as="geometry" />
        </mxCell>
        <mxCell id="0hxbyFXT4rtWx_21wY-C-6" style="edgeStyle=orthogonalEdgeStyle;rounded=0;orthogonalLoop=1;jettySize=auto;html=1;exitX=1;exitY=0.5;exitDx=0;exitDy=0;entryX=0;entryY=0.5;entryDx=0;entryDy=0;dashed=1;" parent="1" source="0hxbyFXT4rtWx_21wY-C-4" target="0hxbyFXT4rtWx_21wY-C-3" edge="1">
          <mxGeometry relative="1" as="geometry" />
        </mxCell>
        <mxCell id="0hxbyFXT4rtWx_21wY-C-4" value="agent proxy&lt;br&gt;inside matrix" style="text;html=1;strokeColor=#6c8ebf;fillColor=#dae8fc;align=center;verticalAlign=middle;whiteSpace=wrap;rounded=0;" parent="1" vertex="1">
          <mxGeometry x="100" y="169.69" width="140" height="60" as="geometry" />
        </mxCell>
        <mxCell id="0hxbyFXT4rtWx_21wY-C-13" style="edgeStyle=orthogonalEdgeStyle;rounded=0;orthogonalLoop=1;jettySize=auto;html=1;exitX=0.993;exitY=0.613;exitDx=0;exitDy=0;entryX=0.041;entryY=0.021;entryDx=0;entryDy=0;entryPerimeter=0;startArrow=classic;startFill=1;exitPerimeter=0;" parent="1" edge="1">
          <mxGeometry relative="1" as="geometry">
            <mxPoint x="521.74" y="34.650000000000034" as="sourcePoint" />
            <mxPoint x="519" y="99" as="targetPoint" />
            <Array as="points">
              <mxPoint x="560" y="35" />
              <mxPoint x="560" y="99" />
            </Array>
          </mxGeometry>
        </mxCell>
        <mxCell id="0hxbyFXT4rtWx_21wY-C-15" value="Agents Created On&lt;br style=&quot;border-color: var(--border-color);&quot;&gt;End-User Device" style="text;whiteSpace=wrap;html=1;align=center;labelBackgroundColor=none;verticalAlign=middle;" parent="1" vertex="1">
          <mxGeometry x="454" y="260" width="136" height="40" as="geometry" />
        </mxCell>
      </root>
    </mxGraphModel>
  </diagram>
</mxfile>
